<svg width="381" height="101" viewBox="0 0 381 101" fill="none" xmlns="http://www.w3.org/2000/svg">
<path d="M0 18.6976C0 8.3712 8.3712 0 18.6976 0L122.037 0C129.174 0 135.688 4.06216 138.828 10.4705L140.913 14.7259C144.053 21.1342 150.567 25.1964 157.703 25.1964L362.302 25.1964C372.629 25.1964 381 33.5676 381 43.894V82.3024C381 92.6288 372.629 101 362.302 101L18.6976 101C8.3712 101 0 92.6288 0 82.3024L0 18.6976Z" fill="url(#paint0_linear_138_91)"/>
<g clip-path="url(#clip0_138_91)">
<path d="M111.65 28.6523V24.6145H123.106V28.6523H111.65ZM120.491 14L128.047 32.134H123.15L116.813 16.1277H118.142L111.783 32.134H106.886L114.442 14H120.491Z" fill="#4DE9FF"/>
<path d="M97.481 16.2003H102.184V32.134H97.481V16.2003ZM91.0151 14H108.649V18.4489H91.0151V14Z" fill="#4DE9FF"/>
<path d="M76.7788 28.6523V24.6145H89.1891V28.6523H76.7788ZM86.3566 14L94.5422 32.134H89.2371L82.3717 16.1277H83.812L76.9227 32.134H71.6177L79.8033 14H86.3566Z" fill="#4DE9FF"/>
<path d="M69.854 28.5072V32.134H57.51V28.5072H69.854Z" fill="#4DE9FF"/>
<path d="M69.8552 14V17.6268H66.3276V14H69.8552Z" fill="#4DE9FF"/>
<path d="M69.8545 21.2536V24.8804H52.2202V21.2536H69.8545Z" fill="#4DE9FF"/>
<path d="M69.8545 28.5072V32.134H52.2202V28.5072H69.8545Z" fill="#4DE9FF"/>
<path d="M69.8545 14V17.6268H52.2202V14H69.8545Z" fill="#4DE9FF"/>
<path d="M35.4922 21.9306H41.8518C42.6284 21.9306 43.2339 21.7453 43.6688 21.3745C44.1037 21.0038 44.321 20.488 44.321 19.8271C44.321 19.1501 44.1037 18.6343 43.6688 18.2796C43.2339 17.9089 42.6284 17.7235 41.8518 17.7235H34.8168L36.9832 15.3299V32.134H32.1611V14H42.5274C43.863 14 45.0277 14.2499 46.0216 14.7496C47.0156 15.2331 47.7919 15.9101 48.3511 16.7806C48.9101 17.6349 49.1896 18.6504 49.1896 19.8271C49.1896 20.9715 48.9101 21.979 48.3511 22.8494C47.7919 23.7198 47.0156 24.3968 46.0216 24.8804C45.0277 25.364 43.863 25.6058 42.5274 25.6058H35.4922V21.9306ZM38.1012 23.6473H43.529L49.7954 32.134H44.2047L38.1012 23.6473Z" fill="#4DE9FF"/>
<path d="M30.3977 24.4815C30.2334 26.012 29.7257 27.357 28.8745 28.5164C28.0233 29.6604 26.9034 30.5494 25.5147 31.1832C24.1408 31.8171 22.558 32.134 20.766 32.134C18.8098 32.134 17.1 31.7552 15.6366 30.9977C14.1732 30.2402 13.0309 29.1812 12.2096 27.8208C11.4032 26.4603 11 24.8757 11 23.067C11 21.2582 11.4032 19.6736 12.2096 18.3132C13.0309 16.9528 14.1732 15.8938 15.6366 15.1363C17.1 14.3788 18.8098 14 20.766 14C22.558 14 24.1408 14.3169 25.5147 14.9508C26.9034 15.5846 28.0233 16.4812 28.8745 17.6407C29.7257 18.7847 30.2334 20.122 30.3977 21.6524H25.7386C25.5893 20.9104 25.2981 20.2843 24.8651 19.7741C24.432 19.2485 23.8646 18.8466 23.1627 18.5683C22.4758 18.29 21.6769 18.1509 20.766 18.1509C19.7207 18.1509 18.8173 18.3518 18.0557 18.7538C17.2942 19.1403 16.7118 19.7045 16.3086 20.4466C15.9054 21.1732 15.7038 22.0467 15.7038 23.067C15.7038 24.0873 15.9054 24.9685 16.3086 25.7106C16.7118 26.4372 17.2942 27.0014 18.0557 27.4034C18.8173 27.7899 19.7207 27.9831 20.766 27.9831C21.6769 27.9831 22.4758 27.8517 23.1627 27.5889C23.8646 27.3261 24.432 26.9319 24.8651 26.4062C25.2981 25.8806 25.5893 25.239 25.7386 24.4815H30.3977Z" fill="#4DE9FF"/>
</g>
<path d="M332.565 84.5466V65.7171H345.789V84.5466H332.565ZM314.626 46.3786H329.131L341.894 62.7145H336.409L349.121 46.3786H363.626L343.431 72.1293L334.872 72.2819L314.626 46.3786Z" fill="white"/>
<path d="M311.531 46.3786V84.5466H298.973V51.315L301.382 51.6204L288.466 84.5466H275.396L262.48 51.773L264.889 51.4168V84.5466H252.331V46.3786H272.782L284.263 77.4728H279.701L291.08 46.3786H311.531Z" fill="white"/>
<path d="M245.026 60.9333V69.9919H216.067V60.9333H245.026ZM225.139 65.4626L222.781 79.6611L217.758 74.1649H246.923V84.5466H209.711L212.53 65.4626L209.711 46.3786H246.666V56.7603H217.758L222.781 51.2641L225.139 65.4626Z" fill="white"/>
<path d="M183.184 46.3786C187.866 46.3786 191.949 47.1759 195.434 48.7705C198.954 50.3311 201.687 52.5364 203.635 55.3863C205.583 58.2361 206.557 61.5949 206.557 65.4626C206.557 69.2964 205.583 72.6551 203.635 75.5389C201.687 78.3888 198.954 80.611 195.434 82.2056C191.949 83.7663 187.866 84.5466 183.184 84.5466H162.785V46.3786H183.184ZM175.906 78.6942L169.961 72.8417H184.209C186.089 72.8417 187.695 72.5534 189.027 71.9766C190.394 71.3659 191.436 70.5177 192.154 69.4321C192.872 68.3125 193.23 66.9893 193.23 65.4626C193.23 63.902 192.872 62.5788 192.154 61.4931C191.436 60.4075 190.394 59.5763 189.027 58.9995C187.695 58.3888 186.089 58.0835 184.209 58.0835H169.961L175.906 52.231V78.6942Z" fill="white"/>
<path d="M120.853 78.1344V67.7018H147.045V78.1344H120.853ZM142.996 46.3786L159.858 84.5466H145.763L132.488 52.1802H135.871L122.596 84.5466H108.501L125.364 46.3786H142.996Z" fill="white"/>
<path d="M109.462 68.0071C109.052 71.5016 107.839 74.555 105.823 77.1674C103.841 79.7798 101.21 81.8154 97.9298 83.2743C94.6495 84.7332 90.8908 85.4626 86.6537 85.4626C82.0749 85.4626 78.077 84.6314 74.66 82.9689C71.243 81.3065 68.5778 78.9825 66.6642 75.9969C64.7849 72.9774 63.8452 69.466 63.8452 65.4626C63.8452 61.4592 64.7849 57.9647 66.6642 54.9791C68.5778 51.9596 71.243 49.6186 74.66 47.9562C78.077 46.2938 82.0749 45.4626 86.6537 45.4626C90.8908 45.4626 94.6495 46.192 97.9298 47.6509C101.21 49.1097 103.841 51.1454 105.823 53.7577C107.839 56.3701 109.052 59.4236 109.462 62.9181H96.1871C95.8796 61.5949 95.3158 60.4753 94.4957 59.5593C93.6756 58.6093 92.5993 57.8968 91.2666 57.4219C89.9682 56.913 88.4305 56.6585 86.6537 56.6585C84.6718 56.6585 82.9633 57.0147 81.5282 57.7272C80.1272 58.4058 79.0509 59.4066 78.2991 60.7298C77.5474 62.0529 77.1715 63.6305 77.1715 65.4626C77.1715 67.2946 77.5474 68.8723 78.2991 70.1954C79.0509 71.4846 80.1272 72.4855 81.5282 73.198C82.9633 73.9104 84.6718 74.2667 86.6537 74.2667C88.4305 74.2667 89.9682 74.0461 91.2666 73.6051C92.5993 73.1301 93.6756 72.4346 94.4957 71.5186C95.3158 70.5686 95.8796 69.3981 96.1871 68.0071H109.462Z" fill="white"/>
<path d="M23.9782 78.1344V67.7018H50.1695V78.1344H23.9782ZM46.1203 46.3786L62.9832 84.5466H48.8881L35.6131 52.1802H38.9959L25.7209 84.5466H11.6257L28.4886 46.3786H46.1203Z" fill="white"/>
<defs>
<linearGradient id="paint0_linear_138_91" x1="-15.2456" y1="109.672" x2="413.446" y2="-36.7059" gradientUnits="userSpaceOnUse">
<stop stop-color="#AF33E4"/>
<stop offset="0.5" stop-color="#200DAF"/>
<stop offset="1" stop-color="#42E8BE"/>
</linearGradient>
<clipPath id="clip0_138_91">
<rect width="117" height="18" fill="white" transform="translate(11 14)"/>
</clipPath>
</defs>
</svg>
