<svg width="460" height="151" viewBox="0 0 460 151" fill="none" xmlns="http://www.w3.org/2000/svg">
<style>
    @keyframes letterReveal {
        0% {
            opacity: 0;
            transform: translateY(30px);
        }
        100% {
            opacity: 1;
            transform: translateY(0);
        }
    }
    .letter {
        opacity: 0;
        animation: letterReveal 1s cubic-bezier(0.16, 1, 0.3, 1) forwards;
    }
    
    @keyframes pyramidReveal {
        0% {
            opacity: 0;
            transform: scale(0.85) translateY(20px);
        }
        100% {
            opacity: 1;
            transform: scale(1) translateY(0);
        }
    }
    .pyramid-wrap {
        opacity: 0;
        transform-origin: 70.7px 123.8px;
        animation: pyramidReveal 1.2s cubic-bezier(0.16, 1, 0.3, 1) forwards;
    }
</style>

<g id="logo-mark" class="pyramid-wrap">
    <g id="pyramid">
        <!-- 3D wireframe rotation: 180-degree turns, reversed direction, continuous custom velocity splines for strong Ease In/Out -->
        <path stroke="url(#paint0_linear_115_80)" stroke-width="6" stroke-linecap="round" stroke-linejoin="round">
            <animate 
                attributeName="d" 
                dur="10s" 
                repeatCount="indefinite" 
                calcMode="spline"
                keyTimes="0; 0.05; 0.15; 0.25; 0.35; 0.45; 0.55; 0.65; 0.75; 0.85; 0.95; 1"
                keySplines="0.2 0.2 0.8 0.8; 0.8 0 0.8 0.8; 0.2 0.2 0.8 0.8; 0.2 0.2 0.8 0.8; 0.2 0.2 0.2 1; 0.2 0.2 0.8 0.8; 0.8 0 0.8 0.8; 0.2 0.2 0.8 0.8; 0.2 0.2 0.8 0.8; 0.2 0.2 0.2 1; 0.2 0.2 0.8 0.8"
                values="
                    M 70.71 3 L 138.42 123.83 M 70.71 3 L 70.71 148.00 M 70.71 3 L 3.00 123.83 M 70.71 3 L 70.71 99.67 M 138.42 123.83 L 70.71 148.00 M 138.42 123.83 L 70.71 99.67 M 70.71 148.00 L 3.00 123.83 M 3.00 123.83 L 70.71 99.67;
                    M 70.71 3 L 138.42 123.83 M 70.71 3 L 70.71 148.00 M 70.71 3 L 3.00 123.83 M 70.71 3 L 70.71 99.67 M 138.42 123.83 L 70.71 148.00 M 138.42 123.83 L 70.71 99.67 M 70.71 148.00 L 3.00 123.83 M 3.00 123.83 L 70.71 99.67;
                    M 70.71 3 L 118.59 106.74 M 70.71 3 L 118.59 140.92 M 70.71 3 L 22.83 140.92 M 70.71 3 L 22.83 106.74 M 118.59 106.74 L 118.59 140.92 M 118.59 106.74 L 22.83 106.74 M 118.59 140.92 L 22.83 140.92 M 22.83 140.92 L 22.83 106.74;
                    M 70.71 3 L 70.71 99.67 M 70.71 3 L 138.42 123.83 M 70.71 3 L 70.71 148.00 M 70.71 3 L 3.00 123.83 M 70.71 99.67 L 138.42 123.83 M 70.71 99.67 L 3.00 123.83 M 138.42 123.83 L 70.71 148.00 M 70.71 148.00 L 3.00 123.83;
                    M 70.71 3 L 22.83 106.74 M 70.71 3 L 118.59 106.74 M 70.71 3 L 118.59 140.92 M 70.71 3 L 22.83 140.92 M 22.83 106.74 L 118.59 106.74 M 22.83 106.74 L 22.83 140.92 M 118.59 106.74 L 118.59 140.92 M 118.59 140.92 L 22.83 140.92;
                    M 70.71 3 L 3.00 123.83 M 70.71 3 L 70.71 99.67 M 70.71 3 L 138.42 123.83 M 70.71 3 L 70.71 148.00 M 3.00 123.83 L 70.71 99.67 M 3.00 123.83 L 70.71 148.00 M 70.71 99.67 L 138.42 123.83 M 138.42 123.83 L 70.71 148.00;
                    M 70.71 3 L 3.00 123.83 M 70.71 3 L 70.71 99.67 M 70.71 3 L 138.42 123.83 M 70.71 3 L 70.71 148.00 M 3.00 123.83 L 70.71 99.67 M 3.00 123.83 L 70.71 148.00 M 70.71 99.67 L 138.42 123.83 M 138.42 123.83 L 70.71 148.00;
                    M 70.71 3 L 22.83 140.92 M 70.71 3 L 22.83 106.74 M 70.71 3 L 118.59 106.74 M 70.71 3 L 118.59 140.92 M 22.83 140.92 L 22.83 106.74 M 22.83 140.92 L 118.59 140.92 M 22.83 106.74 L 118.59 106.74 M 118.59 106.74 L 118.59 140.92;
                    M 70.71 3 L 70.71 148.00 M 70.71 3 L 3.00 123.83 M 70.71 3 L 70.71 99.67 M 70.71 3 L 138.42 123.83 M 70.71 148.00 L 3.00 123.83 M 70.71 148.00 L 138.42 123.83 M 3.00 123.83 L 70.71 99.67 M 70.71 99.67 L 138.42 123.83;
                    M 70.71 3 L 118.59 140.92 M 70.71 3 L 22.83 140.92 M 70.71 3 L 22.83 106.74 M 70.71 3 L 118.59 106.74 M 118.59 140.92 L 22.83 140.92 M 118.59 140.92 L 118.59 106.74 M 22.83 140.92 L 22.83 106.74 M 22.83 106.74 L 118.59 106.74;
                    M 70.71 3 L 138.42 123.83 M 70.71 3 L 70.71 148.00 M 70.71 3 L 3.00 123.83 M 70.71 3 L 70.71 99.67 M 138.42 123.83 L 70.71 148.00 M 138.42 123.83 L 70.71 99.67 M 70.71 148.00 L 3.00 123.83 M 3.00 123.83 L 70.71 99.67;
                    M 70.71 3 L 138.42 123.83 M 70.71 3 L 70.71 148.00 M 70.71 3 L 3.00 123.83 M 70.71 3 L 70.71 99.67 M 138.42 123.83 L 70.71 148.00 M 138.42 123.83 L 70.71 99.67 M 70.71 148.00 L 3.00 123.83 M 3.00 123.83 L 70.71 99.67
                " />
        </path>
    </g>
</g>

<g id="word-start">
    <g id="letter-start-t-end" class="letter" style="animation-delay: 0.4s;">
        <path d="M348.642 135.154H343.728C342.792 135.154 342.324 134.712 342.324 133.828V92.41C342.324 91.89 342.064 91.63 341.544 91.63H331.716C330.78 91.63 330.312 91.188 330.312 90.304V86.326C330.312 85.442 330.78 85 331.716 85H360.654C361.59 85 362.058 85.442 362.058 86.326V90.304C362.058 91.188 361.59 91.63 360.654 91.63H350.826C350.254 91.63 349.968 91.89 349.968 92.41V133.828C349.968 134.712 349.526 135.154 348.642 135.154Z" fill="white"/>
    </g>
    <g id="letter-start-r" class="letter" style="animation-delay: 0.35s;">
        <path d="M298.879 135.154H293.965C293.081 135.154 292.639 134.712 292.639 133.828V86.326C292.639 85.442 293.081 85 293.965 85H312.217C316.013 85 318.977 86.092 321.109 88.276C323.293 90.408 324.385 93.372 324.385 97.168V103.72C324.385 109.7 321.915 113.47 316.975 115.03V115.342L325.633 133.594C326.205 134.634 325.867 135.154 324.619 135.154H319.783C318.535 135.154 317.729 134.712 317.365 133.828L309.019 115.888H301.141C300.517 115.888 300.205 116.148 300.205 116.668V133.828C300.205 134.712 299.763 135.154 298.879 135.154ZM301.063 109.648H310.969C314.817 109.648 316.741 107.75 316.741 103.954V97.402C316.741 93.554 314.817 91.63 310.969 91.63H301.063C300.491 91.63 300.205 91.89 300.205 92.41V108.868C300.205 109.388 300.491 109.648 301.063 109.648Z" fill="white"/>
    </g>
    <g id="letter-start-a" class="letter" style="animation-delay: 0.3s;">
        <path d="M252.636 135.154H247.02C246.292 135.154 246.032 134.712 246.24 133.828L259.812 86.326C260.072 85.442 260.696 85 261.684 85H269.484C270.524 85 271.148 85.442 271.356 86.326L284.928 133.828C285.136 134.712 284.85 135.154 284.07 135.154H278.532C278.064 135.154 277.726 135.076 277.518 134.92C277.362 134.712 277.232 134.348 277.128 133.828L274.164 123.688H257.004L254.04 133.828C253.832 134.712 253.364 135.154 252.636 135.154ZM265.428 92.488L258.564 117.448H272.682L265.74 92.488H265.428Z" fill="white"/>
    </g>
    <g id="letter-start-t" class="letter" style="animation-delay: 0.25s;">
        <path d="M229.813 135.154H224.899C223.963 135.154 223.495 134.712 223.495 133.828V92.41C223.495 91.89 223.235 91.63 222.715 91.63H212.887C211.951 91.63 211.483 91.188 211.483 90.304V86.326C211.483 85.442 211.951 85 212.887 85H241.825C242.761 85 243.229 85.442 243.229 86.326V90.304C243.229 91.188 242.761 91.63 241.825 91.63H231.997C231.425 91.63 231.139 91.89 231.139 92.41V133.828C231.139 134.712 230.697 135.154 229.813 135.154Z" fill="white"/>
    </g>
    <g id="letter-start-s" class="letter" style="animation-delay: 0.2s;">
        <path d="M172.417 122.986V120.958C172.417 120.074 172.859 119.632 173.743 119.632H178.735C179.619 119.632 180.061 120.074 180.061 120.958V122.362C180.061 124.546 180.529 126.132 181.465 127.12C182.453 128.056 184.065 128.524 186.301 128.524H191.683C193.919 128.524 195.531 128.03 196.519 127.042C197.507 126.002 198.001 124.338 198.001 122.05V120.256C198.001 118.592 197.351 117.292 196.051 116.356C194.803 115.368 193.243 114.744 191.371 114.484C189.499 114.172 187.445 113.756 185.209 113.236C182.973 112.716 180.919 112.118 179.047 111.442C177.175 110.766 175.589 109.492 174.289 107.62C173.041 105.748 172.417 103.356 172.417 100.444V97.168C172.417 93.372 173.483 90.408 175.615 88.276C177.799 86.092 180.789 85 184.585 85H192.853C196.701 85 199.691 86.092 201.823 88.276C204.007 90.408 205.099 93.372 205.099 97.168V98.884C205.099 99.768 204.657 100.21 203.773 100.21H198.781C197.897 100.21 197.455 99.768 197.455 98.884V97.87C197.455 95.634 196.961 94.048 195.973 93.112C195.037 92.124 193.451 91.63 191.215 91.63H186.301C184.065 91.63 182.453 92.15 181.465 93.19C180.529 94.178 180.061 95.894 180.061 98.338V100.756C180.061 103.096 181.751 104.682 185.131 105.514C186.639 105.878 188.277 106.19 190.045 106.45C191.865 106.71 193.685 107.1 195.505 107.62C197.325 108.14 198.989 108.842 200.497 109.726C202.005 110.558 203.227 111.858 204.163 113.626C205.099 115.342 205.567 117.448 205.567 119.944V122.986C205.567 126.782 204.475 129.772 202.291 131.956C200.159 134.088 197.195 135.154 193.399 135.154H184.663C180.867 135.154 177.877 134.088 175.693 131.956C173.509 129.772 172.417 126.782 172.417 122.986Z" fill="white"/>
    </g>
</g>

<g id="word-creative">
    <g id="letter-creative-e-end" class="letter" style="animation-delay: 0.45s;">
        <path d="M457.786 66.154H432.826C431.942 66.154 431.5 65.712 431.5 64.828V17.326C431.5 16.442 431.942 16 432.826 16H457.786C458.618 16 459.034 16.442 459.034 17.326V21.304C459.034 22.188 458.618 22.63 457.786 22.63H440.002C439.378 22.63 439.066 22.89 439.066 23.41V36.592C439.066 37.112 439.378 37.372 440.002 37.372H455.056C455.992 37.372 456.46 37.814 456.46 38.698V42.676C456.46 43.56 455.992 44.002 455.056 44.002H440.002C439.378 44.002 439.066 44.262 439.066 44.782V58.666C439.066 59.238 439.378 59.524 440.002 59.524H457.786C458.618 59.524 459.034 59.966 459.034 60.85V64.828C459.034 65.712 458.618 66.154 457.786 66.154Z" fill="white"/>
    </g>
    <g id="letter-creative-v" class="letter" style="animation-delay: 0.4s;">
        <path d="M409.762 66.154H402.04C401.156 66.154 400.61 65.712 400.402 64.828L387.454 17.482C387.142 16.494 387.532 16 388.624 16H394.162C394.994 16 395.488 16.442 395.644 17.326L405.706 58.042H406.018L416.002 17.326C416.21 16.442 416.73 16 417.562 16H423.022C424.114 16 424.53 16.494 424.27 17.482L411.244 64.828C411.036 65.712 410.542 66.154 409.762 66.154Z" fill="white"/>
    </g>
    <g id="letter-creative-i" class="letter" style="animation-delay: 0.35s;">
        <path d="M379.737 17.326V64.828C379.737 65.712 379.295 66.154 378.411 66.154H373.497C372.613 66.154 372.171 65.712 372.171 64.828V17.326C372.171 16.442 372.613 16 373.497 16H378.411C379.295 16 379.737 16.442 379.737 17.326Z" fill="white"/>
    </g>
    <g id="letter-creative-t" class="letter" style="animation-delay: 0.3s;">
        <path d="M351.688 66.154H346.774C345.838 66.154 345.37 65.712 345.37 64.828V23.41C345.37 22.89 345.11 22.63 344.59 22.63H334.762C333.826 22.63 333.358 22.188 333.358 21.304V17.326C333.358 16.442 333.826 16 334.762 16H363.7C364.636 16 365.104 16.442 365.104 17.326V21.304C365.104 22.188 364.636 22.63 363.7 22.63H353.872C353.3 22.63 353.014 22.89 353.014 23.41V64.828C353.014 65.712 352.572 66.154 351.688 66.154Z" fill="white"/>
    </g>
    <g id="letter-creative-a" class="letter" style="animation-delay: 0.25s;">
        <path d="M297.958 66.154H292.342C291.614 66.154 291.354 65.712 291.562 64.828L305.135 17.326C305.395 16.442 306.018 16 307.006 16H314.807C315.847 16 316.47 16.442 316.678 17.326L330.25 64.828C330.459 65.712 330.172 66.154 329.392 66.154H323.855C323.387 66.154 323.048 66.076 322.84 65.92C322.684 65.712 322.554 65.348 322.45 64.828L319.486 54.688H302.327L299.363 64.828C299.155 65.712 298.686 66.154 297.958 66.154ZM310.751 23.488L303.887 48.448H318.004L311.062 23.488H310.751Z" fill="white"/>
    </g>
    <g id="letter-creative-e" class="letter" style="animation-delay: 0.2s;">
        <path d="M284.038 66.154H259.078C258.194 66.154 257.752 65.712 257.752 64.828V17.326C257.752 16.442 258.194 16 259.078 16H284.038C284.87 16 285.286 16.442 285.286 17.326V21.304C285.286 22.188 284.87 22.63 284.038 22.63H266.254C265.63 22.63 265.318 22.89 265.318 23.41V36.592C265.318 37.112 265.63 37.372 266.254 37.372H281.308C282.244 37.372 282.712 37.814 282.712 38.698V42.676C282.712 43.56 282.244 44.002 281.308 44.002H266.254C265.63 44.002 265.318 44.262 265.318 44.782V58.666C265.318 59.238 265.63 59.524 266.254 59.524H284.038C284.87 59.524 285.286 59.966 285.286 60.85V64.828C285.286 65.712 284.87 66.154 284.038 66.154Z" fill="white"/>
    </g>
    <g id="letter-creative-r" class="letter" style="animation-delay: 0.15s;">
        <path d="M221.717 66.154H216.803C215.919 66.154 215.477 65.712 215.477 64.828V17.326C215.477 16.442 215.919 16 216.803 16H235.055C238.851 16 241.815 17.092 243.947 19.276C246.131 21.408 247.223 24.372 247.223 28.168V34.72C247.223 40.7 244.753 44.47 239.813 46.03V46.342L248.471 64.594C249.043 65.634 248.705 66.154 247.457 66.154H242.621C241.373 66.154 240.567 65.712 240.203 64.828L231.857 46.888H223.979C223.355 46.888 223.043 47.148 223.043 47.668V64.828C223.043 65.712 222.601 66.154 221.717 66.154ZM223.901 40.648H233.807C237.655 40.648 239.579 38.75 239.579 34.954V28.402C239.579 24.554 237.655 22.63 233.807 22.63H223.901C223.329 22.63 223.043 22.89 223.043 23.41V39.868C223.043 40.388 223.329 40.648 223.901 40.648Z" fill="white"/>
    </g>
    <g id="letter-creative-c" class="letter" style="animation-delay: 0.1s;">
        <path d="M193.711 66.154H184.663C180.815 66.154 177.825 65.088 175.693 62.956C173.613 60.824 172.573 57.86 172.573 54.064V28.09C172.573 24.242 173.613 21.278 175.693 19.198C177.825 17.066 180.815 16 184.663 16H193.711C197.507 16 200.471 17.066 202.603 19.198C204.735 21.278 205.801 24.242 205.801 28.09V31.834C205.801 32.77 205.333 33.238 204.397 33.238H199.483C198.599 33.238 198.157 32.77 198.157 31.834V28.402C198.157 24.554 196.285 22.63 192.541 22.63H185.755C182.011 22.63 180.139 24.554 180.139 28.402V53.752C180.139 57.6 182.011 59.524 185.755 59.524H192.541C196.285 59.524 198.157 57.6 198.157 53.752V50.32C198.157 49.384 198.599 48.916 199.483 48.916H204.397C205.333 48.916 205.801 49.384 205.801 50.32V54.064C205.801 57.86 204.735 60.824 202.603 62.956C200.471 65.088 197.507 66.154 193.711 66.154Z" fill="white"/>
    </g>
</g>

<defs>
    <linearGradient id="paint0_linear_115_80" x1="-33.4583" y1="18.1042" x2="169.323" y2="185.923" gradientUnits="userSpaceOnUse">
        <stop stop-color="#2EB5FF"/>
        <stop offset="0.5" stop-color="#7A5CFF"/>
        <stop offset="1" stop-color="#C227E9"/>
    </linearGradient>
</defs>
</svg>